<svg width="1440" height="705" viewBox="0 0 1440 705" fill="none" xmlns="http://www.w3.org/2000/svg">
    <path opacity="0.1"
        d="M774.029 199.762L775.078 167.779L799.065 168.566C803.596 168.715 807.556 167.978 810.944 166.355C814.337 164.598 817.021 162.085 818.996 158.815C820.971 155.544 822.033 151.644 822.181 147.113C822.335 142.449 821.533 138.42 819.777 135.028C818.02 131.635 815.505 129.018 812.23 127.176C808.955 125.334 805.052 124.339 800.522 124.19L776.535 123.403L777.584 91.4204L800.572 92.1747C813.098 92.5857 823.822 95.0721 832.744 99.6339C841.804 104.067 848.67 110.295 853.343 118.319C858.015 126.344 860.172 135.82 859.814 146.747L859.709 149.945C859.355 160.739 856.583 169.987 851.394 177.688C846.206 185.388 838.944 191.22 829.609 195.182C820.407 199.149 809.543 200.927 797.016 200.516L774.029 199.762ZM739.574 237.452L744.402 90.3315L781.582 91.5515L776.754 238.672L739.574 237.452ZM874.818 241.89L879.645 94.7694L916.825 95.9895L911.998 243.11L874.818 241.89ZM962.77 244.776L923.826 181.465L964.204 182.79L1005.55 246.18L962.77 244.776ZM904.072 198.026L905.01 169.442L939.991 170.589C944.389 170.734 948.215 169.992 951.47 168.365C954.725 166.737 957.272 164.353 959.109 161.211C961.08 158.074 962.135 154.374 962.275 150.109C962.419 145.712 961.611 141.883 959.85 138.624C958.223 135.368 955.838 132.822 952.697 130.985C949.555 129.147 945.786 128.157 941.388 128.012L906.407 126.864L907.43 95.6812L940.213 96.7569C952.873 97.1724 963.737 99.4632 972.805 103.63C981.877 107.663 988.757 113.491 993.442 121.116C998.133 128.607 1000.3 137.816 999.94 148.744L999.835 151.942C999.476 162.87 996.645 171.915 991.34 179.078C986.174 186.112 978.931 191.344 969.614 194.774C960.434 198.075 949.514 199.517 936.854 199.102L904.072 198.026ZM1092.81 253.046C1079.49 252.609 1067.97 249.963 1058.26 245.108C1048.55 240.12 1040.55 233.788 1034.27 226.111C1027.98 218.301 1023.39 209.946 1020.48 201.046C1017.57 192.145 1016.25 183.564 1016.52 175.302L1016.67 170.904C1016.97 161.709 1018.93 152.769 1022.55 144.083C1026.17 135.264 1031.44 127.365 1038.33 120.388C1045.23 113.41 1053.62 107.949 1063.49 104.004C1073.49 100.063 1084.95 98.3047 1097.88 98.7289C1110.67 99.1487 1121.86 101.65 1131.45 106.234C1141.17 110.822 1149.24 116.823 1155.67 124.238C1162.1 131.653 1166.83 139.879 1169.87 148.917C1173.05 157.826 1174.48 166.878 1174.18 176.073L1174.04 180.471C1173.77 188.733 1171.82 197.207 1168.2 205.893C1164.71 214.583 1159.58 222.619 1152.8 230.001C1146.03 237.249 1137.63 243.044 1127.62 247.384C1117.61 251.592 1106.01 253.479 1092.81 253.046ZM1093.95 218.265C1100.35 218.474 1106.12 217.596 1111.25 215.63C1116.38 213.664 1120.81 210.808 1124.54 207.062C1128.26 203.315 1131.14 198.94 1133.17 193.938C1135.21 188.802 1136.33 183.235 1136.52 177.239C1136.73 170.842 1135.92 165.012 1134.1 159.75C1132.4 154.491 1129.81 149.937 1126.34 146.088C1122.86 142.238 1118.63 139.231 1113.63 137.066C1108.63 134.901 1103 133.716 1096.74 133.51C1090.34 133.3 1084.58 134.112 1079.45 135.944C1074.32 137.777 1069.89 140.5 1066.17 144.113C1062.45 147.727 1059.57 152.101 1057.54 157.237C1055.5 162.373 1054.38 168.14 1054.17 174.536C1053.97 180.533 1054.72 186.161 1056.42 191.419C1058.11 196.544 1060.7 201.098 1064.17 205.081C1067.64 209.063 1071.88 212.204 1076.87 214.502C1081.86 216.801 1087.56 218.055 1093.95 218.265ZM1227.46 254.262L1228.6 219.481L1252.59 220.268C1258.85 220.474 1264.47 219.791 1269.46 218.221C1274.59 216.521 1278.94 214.062 1282.51 210.845C1286.09 207.494 1288.89 203.45 1290.91 198.714C1292.94 193.844 1294.06 188.344 1294.26 182.214C1294.47 175.818 1293.72 170.19 1292.01 165.332C1290.31 160.34 1287.77 156.188 1284.41 152.876C1281.06 149.431 1276.87 146.825 1271.86 145.06C1266.99 143.166 1261.42 142.116 1255.16 141.91L1231.17 141.123L1232.31 106.342L1254.7 107.077C1267.89 107.51 1279.36 109.753 1289.1 113.808C1298.97 117.868 1307.13 123.338 1313.57 130.22C1320.02 136.968 1324.77 144.728 1327.82 153.5C1330.86 162.271 1332.23 171.521 1331.91 181.249L1331.76 185.646C1331.47 194.575 1329.52 203.316 1325.9 211.868C1322.29 220.288 1317.04 227.853 1310.15 234.564C1303.26 241.141 1294.75 246.332 1284.62 250.135C1274.63 253.809 1263.04 255.43 1249.85 254.997L1227.46 254.262ZM1194.28 253.174L1199.13 105.253L1236.31 106.473L1231.46 254.394L1194.28 253.174ZM1412.28 263.529C1398.28 263.07 1386.51 260.082 1376.95 254.566C1367.53 249.053 1360.44 241.484 1355.69 231.856C1350.94 222.095 1348.78 210.684 1349.2 197.625L1352.03 111.471L1389.21 112.691L1386.36 199.644C1386.17 205.375 1387.07 210.407 1389.06 214.741C1391.19 219.08 1394.28 222.45 1398.34 224.851C1402.39 227.252 1407.42 228.551 1413.42 228.748C1419.42 228.944 1424.52 227.978 1428.72 225.848C1432.93 223.718 1436.16 220.623 1438.43 216.561C1440.7 212.367 1441.94 207.338 1442.13 201.475L1444.98 114.521L1482.16 115.741L1479.33 201.895C1478.91 214.955 1476 226.199 1470.62 235.627C1465.38 244.927 1457.81 252.016 1447.91 256.894C1438.15 261.776 1426.27 263.988 1412.28 263.529ZM1572.45 268.785C1559.25 268.352 1548 265.715 1538.69 260.873C1529.38 255.899 1521.78 249.58 1515.9 241.916C1510.02 234.119 1505.76 225.774 1503.11 216.883C1500.47 207.991 1499.28 199.415 1499.55 191.152L1499.7 186.755C1500 177.56 1501.76 168.613 1504.98 159.914C1508.34 151.086 1513.2 143.174 1519.57 136.179C1526.07 129.189 1534.05 123.714 1543.52 119.756C1552.99 115.798 1563.99 114.024 1576.51 114.435C1589.84 114.872 1601.55 117.791 1611.64 123.192C1621.88 128.464 1629.98 135.733 1635.94 145.001C1641.91 154.135 1645.24 164.649 1645.91 176.545L1608.73 175.325C1607.97 170.23 1606.11 165.767 1603.17 161.935C1600.23 158.103 1596.39 155.109 1591.66 152.952C1586.93 150.663 1581.5 149.417 1575.37 149.216C1569.64 149.028 1564.41 149.857 1559.68 151.703C1555.08 153.553 1551.13 156.292 1547.81 159.918C1544.62 163.416 1542.08 167.734 1540.18 172.875C1538.41 178.02 1537.41 183.857 1537.2 190.387C1536.99 196.916 1537.59 202.806 1539.02 208.056C1540.58 213.31 1542.9 217.855 1545.98 221.691C1549.19 225.532 1553.09 228.528 1557.69 230.68C1562.29 232.699 1567.59 233.807 1573.59 234.004C1582.92 234.31 1590.85 232.302 1597.4 227.981C1604.08 223.665 1608.21 217.73 1609.79 210.178L1646.97 211.398C1645.41 222.286 1641.42 232.16 1634.99 241.021C1628.56 249.882 1620.06 256.873 1609.49 261.996C1598.92 266.985 1586.57 269.248 1572.45 268.785ZM1692.46 268.721L1696.32 151.184L1733.5 152.404L1729.64 269.941L1692.46 268.721ZM1656.21 153.87L1657.27 121.488L1774.41 125.331L1773.35 157.714L1656.21 153.87ZM1837.09 277.469C1823.5 277.023 1812.11 274.515 1802.92 269.944C1793.86 265.378 1787.06 259.352 1782.5 251.865C1778.08 244.249 1776.03 235.644 1776.34 226.049L1812.32 227.23C1812.21 230.694 1813.04 233.923 1814.81 236.916C1816.71 239.78 1819.57 242.075 1823.39 243.801C1827.2 245.527 1832.1 246.489 1838.1 246.685C1843.3 246.856 1847.72 246.334 1851.36 245.119C1855.13 243.909 1857.99 242.135 1859.94 239.798C1862.01 237.465 1863.11 234.633 1863.22 231.301C1863.36 227.037 1861.67 223.713 1858.14 221.329C1854.62 218.812 1848.61 217.081 1840.1 216.135L1830.73 215.027C1815.72 213.2 1803.88 208.076 1795.22 199.654C1786.56 191.232 1782.45 180.291 1782.89 166.832C1783.2 157.237 1785.67 149.113 1790.29 142.461C1795.05 135.814 1801.55 130.824 1809.79 127.493C1818.04 124.162 1827.69 122.677 1838.76 123.04C1850.75 123.434 1860.81 125.765 1868.94 130.034C1877.21 134.308 1883.42 140.181 1887.57 147.655C1891.74 154.995 1893.66 163.463 1893.34 173.058L1857.36 171.877C1857.47 168.679 1856.77 165.721 1855.25 163.003C1853.74 160.285 1851.48 158.143 1848.46 156.577C1845.58 154.881 1842.01 153.964 1837.74 153.824C1833.75 153.693 1830.33 154.247 1827.48 155.488C1824.78 156.6 1822.66 158.265 1821.12 160.482C1819.71 162.704 1818.96 165.214 1818.87 168.012C1818.75 171.744 1819.91 174.984 1822.35 177.732C1824.8 180.48 1829.14 182.224 1835.39 182.962L1844.76 184.07C1855.65 185.362 1865.24 188.077 1873.51 192.217C1881.78 196.224 1888.21 201.571 1892.79 208.258C1897.37 214.946 1899.51 223.02 1899.2 232.482C1898.89 241.943 1896.15 250.125 1890.99 257.026C1885.96 263.931 1878.85 269.167 1869.66 272.735C1860.61 276.306 1849.75 277.884 1837.09 277.469Z"
        fill="rgba(255,255,255,0.5)" />
    <path opacity="0.1"
        d="M769.495 348.152L770.544 316.17L794.531 316.957C799.062 317.105 803.022 316.368 806.41 314.745C809.803 312.989 812.487 310.476 814.462 307.205C816.437 303.935 817.499 300.034 817.647 295.503C817.801 290.839 816.999 286.811 815.243 283.418C813.486 280.025 810.971 277.408 807.696 275.566C804.421 273.725 800.519 272.729 795.988 272.581L772.001 271.794L773.05 239.811L796.038 240.565C808.564 240.976 819.288 243.463 828.21 248.024C837.27 252.457 844.136 258.686 848.809 266.71C853.481 274.734 855.638 284.21 855.28 295.137L855.175 298.336C854.821 309.13 852.049 318.377 846.86 326.078C841.672 333.779 834.41 339.61 825.075 343.573C815.873 347.54 805.009 349.318 792.482 348.907L769.495 348.152ZM735.04 385.843L739.868 238.722L777.048 239.942L772.22 387.063L735.04 385.843ZM870.284 390.281L875.111 243.16L912.291 244.38L907.464 391.501L870.284 390.281ZM958.236 393.167L919.292 329.855L959.67 331.18L1001.01 394.57L958.236 393.167ZM899.538 346.417L900.476 317.832L935.457 318.98C939.855 319.124 943.681 318.383 946.936 316.755C950.191 315.128 952.738 312.743 954.575 309.602C956.546 306.465 957.601 302.764 957.741 298.5C957.885 294.102 957.077 290.273 955.316 287.014C953.689 283.759 951.304 281.213 948.163 279.375C945.021 277.538 941.252 276.547 936.854 276.403L901.873 275.255L902.896 244.072L935.679 245.147C948.339 245.563 959.203 247.854 968.271 252.02C977.344 256.053 984.223 261.882 988.909 269.506C993.599 276.997 995.764 286.207 995.406 297.134L995.301 300.332C994.942 311.26 992.111 320.305 986.806 327.468C981.64 334.503 974.397 339.735 965.08 343.164C955.9 346.465 944.98 347.908 932.32 347.492L899.538 346.417ZM1088.28 401.436C1074.95 400.999 1063.43 398.353 1053.72 393.499C1044.01 388.511 1036.02 382.178 1029.73 374.502C1023.45 366.691 1018.86 358.336 1015.95 349.436C1013.04 340.536 1011.72 331.955 1011.99 323.692L1012.13 319.295C1012.43 310.1 1014.4 301.159 1018.02 292.473C1021.64 283.654 1026.9 275.756 1033.8 268.778C1040.7 261.801 1049.08 256.339 1058.95 252.394C1068.95 248.453 1080.42 246.695 1093.34 247.119C1106.14 247.539 1117.33 250.041 1126.92 254.624C1136.64 259.212 1144.71 265.214 1151.14 272.628C1157.56 280.043 1162.3 288.27 1165.34 297.307C1168.51 306.216 1169.95 315.268 1169.65 324.463L1169.5 328.861C1169.23 337.123 1167.29 345.597 1163.67 354.283C1160.18 362.974 1155.05 371.01 1148.27 378.391C1141.49 385.64 1133.1 391.434 1123.08 395.775C1113.07 399.982 1101.47 401.869 1088.28 401.436ZM1089.42 366.655C1095.82 366.865 1101.58 365.987 1106.72 364.021C1111.85 362.055 1116.28 359.198 1120 355.452C1123.73 351.705 1126.61 347.331 1128.64 342.328C1130.68 337.192 1131.79 331.626 1131.99 325.629C1132.2 319.232 1131.39 313.403 1129.56 308.14C1127.87 302.882 1125.28 298.328 1121.81 294.478C1118.33 290.629 1114.09 287.622 1109.09 285.456C1104.1 283.291 1098.47 282.106 1092.2 281.901C1085.81 281.691 1080.04 282.502 1074.91 284.335C1069.78 286.168 1065.36 288.891 1061.64 292.504C1057.92 296.117 1055.04 300.492 1053 305.628C1050.97 310.764 1049.84 316.53 1049.63 322.927C1049.44 328.923 1050.19 334.551 1051.88 339.809C1053.58 344.934 1056.17 349.488 1059.64 353.471C1063.11 357.454 1067.34 360.594 1072.34 362.893C1077.33 365.191 1083.02 366.445 1089.42 366.655ZM1222.92 402.653L1224.06 367.872L1248.05 368.659C1254.32 368.864 1259.94 368.182 1264.93 366.611C1270.05 364.912 1274.4 362.453 1277.98 359.235C1281.56 355.884 1284.36 351.84 1286.38 347.104C1288.41 342.235 1289.52 336.735 1289.72 330.605C1289.93 324.208 1289.18 318.581 1287.47 313.722C1285.77 308.73 1283.24 304.578 1279.88 301.266C1276.52 297.821 1272.34 295.216 1267.33 293.45C1262.46 291.556 1256.89 290.506 1250.62 290.301L1226.64 289.514L1227.78 254.732L1250.17 255.467C1263.36 255.9 1274.82 258.144 1284.56 262.199C1294.44 266.258 1302.59 271.729 1309.04 278.61C1315.49 285.359 1320.23 293.119 1323.28 301.89C1326.33 310.661 1327.69 319.911 1327.37 329.639L1327.23 334.037C1326.94 342.965 1324.98 351.706 1321.37 360.259C1317.76 368.678 1312.5 376.243 1305.61 382.954C1298.73 389.532 1290.22 394.722 1280.09 398.525C1270.1 402.2 1258.5 403.82 1245.31 403.387L1222.92 402.653ZM1189.74 401.564L1194.6 253.644L1231.78 254.864L1226.92 402.784L1189.74 401.564ZM1407.74 411.919C1393.75 411.46 1381.98 408.472 1372.42 402.956C1362.99 397.444 1355.9 389.874 1351.15 380.246C1346.4 370.485 1344.24 359.075 1344.67 346.015L1347.5 259.862L1384.68 261.082L1381.82 348.035C1381.64 353.765 1382.54 358.797 1384.53 363.132C1386.66 367.47 1389.75 370.84 1393.8 373.241C1397.86 375.642 1402.89 376.941 1408.88 377.138C1414.88 377.335 1419.98 376.368 1424.19 374.238C1428.39 372.108 1431.63 369.013 1433.9 364.952C1436.17 360.757 1437.4 355.728 1437.59 349.865L1440.45 262.912L1477.63 264.132L1474.8 350.285C1474.37 363.345 1471.47 374.589 1466.09 384.018C1460.85 393.318 1453.28 400.406 1443.38 405.284C1433.61 410.167 1421.74 412.378 1407.74 411.919ZM1567.91 417.175C1554.72 416.742 1543.47 414.105 1534.16 409.264C1524.85 404.289 1517.25 397.97 1511.36 390.306C1505.48 382.509 1501.22 374.165 1498.58 365.273C1495.94 356.382 1494.75 347.805 1495.02 339.543L1495.17 335.145C1495.47 325.95 1497.23 317.003 1500.45 308.304C1503.81 299.476 1508.67 291.565 1515.03 284.57C1521.53 277.579 1529.52 272.105 1538.99 268.146C1548.45 264.188 1559.45 262.414 1571.98 262.825C1585.3 263.263 1597.01 266.182 1607.11 271.582C1617.34 276.854 1625.44 284.124 1631.41 293.391C1637.38 302.525 1640.7 313.04 1641.38 324.935L1604.2 323.715C1603.43 318.62 1601.58 314.157 1598.63 310.325C1595.69 306.493 1591.85 303.499 1587.12 301.343C1582.4 299.053 1576.97 297.808 1570.84 297.607C1565.11 297.419 1559.88 298.248 1555.15 300.093C1550.55 301.944 1546.59 304.682 1543.27 308.308C1540.09 311.806 1537.54 316.125 1535.64 321.265C1533.87 326.41 1532.88 332.247 1532.67 338.777C1532.45 345.307 1533.06 351.197 1534.49 356.446C1536.05 361.7 1538.37 366.245 1541.44 370.082C1544.65 373.922 1548.56 376.919 1553.16 379.071C1557.76 381.089 1563.06 382.197 1569.06 382.394C1578.38 382.7 1586.32 380.693 1592.87 376.372C1599.54 372.055 1603.67 366.121 1605.26 358.568L1642.44 359.788C1640.88 370.677 1636.89 380.551 1630.46 389.412C1624.03 398.272 1615.53 405.264 1604.96 410.386C1594.39 415.376 1582.04 417.639 1567.91 417.175ZM1687.93 417.111L1691.79 299.575L1728.97 300.795L1725.11 418.331L1687.93 417.111ZM1651.68 302.261L1652.74 269.878L1769.88 273.722L1768.81 306.104L1651.68 302.261ZM1832.56 425.859C1818.96 425.413 1807.57 422.905 1798.38 418.335C1789.33 413.768 1782.52 407.742 1777.97 400.255C1773.55 392.639 1771.49 384.034 1771.81 374.439L1807.79 375.62C1807.68 379.085 1808.5 382.314 1810.27 385.307C1812.18 388.171 1815.04 390.466 1818.85 392.192C1822.66 393.918 1827.57 394.879 1833.57 395.076C1838.76 395.246 1843.18 394.724 1846.82 393.51C1850.6 392.3 1853.46 390.526 1855.4 388.188C1857.48 385.855 1858.57 383.023 1858.68 379.691C1858.82 375.427 1857.13 372.103 1853.61 369.72C1850.09 367.203 1844.08 365.471 1835.57 364.525L1826.2 363.417C1811.19 361.59 1799.35 356.466 1790.69 348.044C1782.02 339.622 1777.91 328.682 1778.35 315.222C1778.67 305.627 1781.14 297.504 1785.76 290.852C1790.51 284.204 1797.01 279.215 1805.26 275.883C1813.51 272.552 1823.16 271.068 1834.22 271.431C1846.21 271.824 1856.28 274.156 1864.41 278.425C1872.67 282.698 1878.88 288.571 1883.04 296.045C1887.2 303.386 1889.12 311.853 1888.81 321.448L1852.83 320.267C1852.93 317.069 1852.23 314.111 1850.72 311.393C1849.21 308.676 1846.94 306.534 1843.93 304.967C1841.05 303.272 1837.48 302.354 1833.21 302.214C1829.21 302.083 1825.79 302.638 1822.95 303.879C1820.25 304.991 1818.12 306.655 1816.58 308.872C1815.18 311.094 1814.43 313.604 1814.34 316.403C1814.21 320.134 1815.37 323.374 1817.82 326.122C1820.26 328.871 1824.61 330.614 1830.85 331.353L1840.22 332.46C1851.12 333.752 1860.7 336.468 1868.97 340.608C1877.24 344.615 1883.67 349.962 1888.26 356.649C1892.84 363.336 1894.97 371.41 1894.66 380.872C1894.35 390.334 1891.62 398.515 1886.45 405.416C1881.43 412.321 1874.32 417.558 1865.13 421.125C1856.07 424.697 1845.22 426.275 1832.56 425.859Z"
        fill="rgba(255,255,255,0.5)" />
    <path opacity="0.1"
        d="M762.333 497.668L763.383 465.686L787.37 466.473C791.901 466.621 795.86 465.884 799.249 464.261C802.642 462.505 805.325 459.991 807.3 456.721C809.275 453.451 810.337 449.55 810.486 445.019C810.639 440.355 809.837 436.327 808.081 432.934C806.325 429.541 803.809 426.924 800.534 425.082C797.26 423.24 793.357 422.245 788.826 422.097L764.839 421.309L765.888 389.327L788.876 390.081C801.403 390.492 812.127 392.978 821.049 397.54C830.108 401.973 836.974 408.201 841.647 416.226C846.32 424.25 848.477 433.726 848.118 444.653L848.013 447.852C847.659 458.646 844.888 467.893 839.699 475.594C834.51 483.294 827.248 489.126 817.913 493.089C808.712 497.056 797.848 498.834 785.321 498.423L762.333 497.668ZM727.879 535.359L732.706 388.238L769.886 389.458L765.059 536.579L727.879 535.359ZM863.122 539.797L867.95 392.676L905.13 393.896L900.302 541.017L863.122 539.797ZM951.075 542.683L912.13 479.371L952.509 480.696L993.852 544.086L951.075 542.683ZM892.376 495.932L893.314 467.348L928.296 468.496C932.693 468.64 936.52 467.898 939.775 466.271C943.03 464.643 945.576 462.259 947.413 459.118C949.384 455.981 950.439 452.28 950.579 448.015C950.724 443.618 949.915 439.789 948.155 436.53C946.527 433.275 944.143 430.728 941.001 428.891C937.86 427.054 934.09 426.063 929.693 425.919L894.712 424.771L895.735 393.587L928.517 394.663C941.177 395.079 952.041 397.369 961.109 401.536C970.182 405.569 977.061 411.398 981.747 419.022C986.437 426.513 988.603 435.723 988.244 446.65L988.139 449.848C987.781 460.776 984.949 469.821 979.645 476.984C974.478 484.019 967.236 489.251 957.918 492.68C948.739 495.981 937.819 497.424 925.159 497.008L892.376 495.932ZM1081.12 550.952C1067.79 550.515 1056.27 547.869 1046.56 543.014C1036.85 538.027 1028.85 531.694 1022.57 524.017C1016.29 516.207 1011.69 507.852 1008.78 498.952C1005.87 490.052 1004.56 481.47 1004.83 473.208L1004.97 468.811C1005.27 459.615 1007.23 450.675 1010.85 441.989C1014.48 433.17 1019.74 425.271 1026.64 418.294C1033.54 411.317 1041.92 405.855 1051.79 401.91C1061.79 397.969 1073.26 396.211 1086.18 396.635C1098.97 397.055 1110.17 399.557 1119.75 404.14C1129.48 408.728 1137.55 414.73 1143.98 422.144C1150.4 429.559 1155.14 437.785 1158.17 446.823C1161.35 455.732 1162.79 464.784 1162.49 473.979L1162.34 478.377C1162.07 486.639 1160.13 495.113 1156.5 503.799C1153.02 512.49 1147.89 520.525 1141.11 527.907C1134.33 535.156 1125.94 540.95 1115.92 545.291C1105.91 549.498 1094.31 551.385 1081.12 550.952ZM1082.26 516.171C1088.66 516.381 1094.42 515.503 1099.55 513.537C1104.69 511.571 1109.12 508.714 1112.84 504.968C1116.57 501.221 1119.45 496.847 1121.48 491.844C1123.51 486.708 1124.63 481.142 1124.83 475.145C1125.04 468.748 1124.23 462.919 1122.4 457.656C1120.7 452.397 1118.12 447.843 1114.64 443.994C1111.17 440.145 1106.93 437.137 1101.93 434.972C1096.93 432.807 1091.3 431.622 1085.04 431.416C1078.64 431.207 1072.88 432.018 1067.75 433.851C1062.62 435.683 1058.2 438.406 1054.48 442.02C1050.76 445.633 1047.88 450.008 1045.84 455.144C1043.8 460.28 1042.68 466.046 1042.47 472.442C1042.28 478.439 1043.02 484.067 1044.72 489.325C1046.42 494.45 1049 499.004 1052.48 502.987C1055.95 506.97 1060.18 510.11 1065.17 512.408C1070.17 514.707 1075.86 515.961 1082.26 516.171ZM1215.76 552.169L1216.9 517.387L1240.89 518.175C1247.15 518.38 1252.78 517.697 1257.77 516.127C1262.89 514.427 1267.24 511.969 1270.82 508.751C1274.39 505.4 1277.19 501.356 1279.22 496.62C1281.25 491.75 1282.36 486.251 1282.56 480.121C1282.77 473.724 1282.02 468.097 1280.31 463.238C1278.61 458.246 1276.08 454.094 1272.72 450.782C1269.36 447.337 1265.18 444.732 1260.17 442.966C1255.29 441.072 1249.73 440.022 1243.46 439.817L1219.47 439.03L1220.62 404.248L1243 404.983C1256.2 405.416 1267.66 407.66 1277.4 411.715C1287.27 415.774 1295.43 421.244 1301.88 428.126C1308.33 434.875 1313.07 442.635 1316.12 451.406C1319.17 460.177 1320.53 469.427 1320.21 479.155L1320.07 483.553C1319.78 492.481 1317.82 501.222 1314.21 509.774C1310.59 518.194 1305.34 525.759 1298.45 532.47C1291.57 539.048 1283.06 544.238 1272.93 548.041C1262.94 551.716 1251.34 553.336 1238.15 552.903L1215.76 552.169ZM1182.58 551.08L1187.43 403.159L1224.61 404.379L1219.76 552.3L1182.58 551.08ZM1400.58 561.435C1386.59 560.976 1374.81 557.988 1365.26 552.472C1355.83 546.96 1348.74 539.39 1343.99 529.762C1339.24 520.001 1337.08 508.591 1337.51 495.531L1340.34 409.377L1377.52 410.598L1374.66 497.551C1374.47 503.281 1375.38 508.313 1377.37 512.648C1379.49 516.986 1382.59 520.356 1386.64 522.757C1390.7 525.158 1395.73 526.457 1401.72 526.654C1407.72 526.851 1412.82 525.884 1417.03 523.754C1421.23 521.624 1424.47 518.529 1426.74 514.468C1429.01 510.273 1430.24 505.244 1430.43 499.381L1433.29 412.428L1470.47 413.648L1467.64 499.801C1467.21 512.861 1464.31 524.105 1458.93 533.534C1453.69 542.833 1446.12 549.922 1436.22 554.8C1426.45 559.683 1414.57 561.894 1400.58 561.435ZM1560.75 566.691C1547.56 566.258 1536.31 563.621 1526.99 558.78C1517.69 553.805 1510.09 547.486 1504.2 539.822C1498.32 532.025 1494.06 523.681 1491.42 514.789C1488.77 505.898 1487.59 497.321 1487.86 489.059L1488 484.661C1488.31 475.466 1490.07 466.519 1493.29 457.82C1496.64 448.992 1501.51 441.08 1507.87 434.085C1514.37 427.095 1522.36 421.62 1531.82 417.662C1541.29 413.704 1552.29 411.93 1564.82 412.341C1578.14 412.779 1589.85 415.698 1599.95 421.098C1610.18 426.37 1618.28 433.64 1624.25 442.907C1630.22 452.041 1633.54 462.556 1634.22 474.451L1597.04 473.231C1596.27 468.136 1594.42 463.673 1591.47 459.841C1588.53 456.009 1584.69 453.015 1579.96 450.859C1575.23 448.569 1569.81 447.324 1563.68 447.123C1557.95 446.935 1552.72 447.763 1547.99 449.609C1543.39 451.46 1539.43 454.198 1536.11 457.824C1532.93 461.322 1530.38 465.641 1528.48 470.781C1526.71 475.926 1525.72 481.763 1525.5 488.293C1525.29 494.823 1525.9 500.712 1527.33 505.962C1528.89 511.216 1531.21 515.761 1534.28 519.598C1537.49 523.438 1541.4 526.435 1545.99 528.587C1550.6 530.605 1555.9 531.713 1561.89 531.91C1571.22 532.216 1579.16 530.208 1585.7 525.887C1592.38 521.571 1596.51 515.636 1598.09 508.084L1635.27 509.304C1633.72 520.192 1629.72 530.067 1623.3 538.927C1616.87 547.788 1608.37 554.78 1597.79 559.902C1587.23 564.892 1574.88 567.155 1560.75 566.691ZM1680.77 566.627L1684.62 449.09L1721.8 450.31L1717.95 567.847L1680.77 566.627ZM1644.52 451.776L1645.58 419.394L1762.71 423.238L1761.65 455.62L1644.52 451.776ZM1825.39 575.375C1811.8 574.929 1800.41 572.421 1791.22 567.85C1782.17 563.284 1775.36 557.258 1770.8 549.771C1766.39 542.155 1764.33 533.55 1764.65 523.955L1800.63 525.136C1800.51 528.601 1801.34 531.83 1803.11 534.823C1805.02 537.687 1807.88 539.982 1811.69 541.708C1815.5 543.434 1820.41 544.395 1826.4 544.592C1831.6 544.762 1836.02 544.24 1839.66 543.026C1843.44 541.816 1846.3 540.042 1848.24 537.704C1850.32 535.371 1851.41 532.539 1851.52 529.207C1851.66 524.943 1849.97 521.619 1846.45 519.235C1842.93 516.719 1836.91 514.987 1828.41 514.041L1819.04 512.933C1804.02 511.106 1792.19 505.982 1783.52 497.56C1774.86 489.138 1770.75 478.197 1771.19 464.738C1771.51 455.143 1773.98 447.02 1778.6 440.368C1783.35 433.72 1789.85 428.731 1798.1 425.399C1806.35 422.068 1816 420.584 1827.06 420.947C1839.05 421.34 1849.12 423.672 1857.25 427.94C1865.51 432.214 1871.72 438.087 1875.88 445.561C1880.04 452.901 1881.96 461.369 1881.65 470.964L1845.67 469.783C1845.77 466.585 1845.07 463.627 1843.56 460.909C1842.05 458.192 1839.78 456.049 1836.76 454.483C1833.89 452.788 1830.31 451.87 1826.05 451.73C1822.05 451.599 1818.63 452.154 1815.79 453.395C1813.08 454.506 1810.96 456.171 1809.42 458.388C1808.02 460.61 1807.27 463.12 1807.17 465.919C1807.05 469.65 1808.21 472.89 1810.66 475.638C1813.1 478.386 1817.45 480.13 1823.69 480.868L1833.06 481.976C1843.96 483.268 1853.54 485.984 1861.81 490.124C1870.08 494.13 1876.51 499.477 1881.09 506.165C1885.68 512.852 1887.81 520.926 1887.5 530.388C1887.19 539.849 1884.46 548.031 1879.29 554.932C1874.26 561.837 1867.16 567.074 1857.97 570.641C1848.91 574.212 1838.05 575.791 1825.39 575.375Z"
        fill="rgba(255,255,255,0.5)" />
    <path opacity="0.1"
        d="M-358.662 300.682L-361.749 268.831L-337.861 266.516C-333.349 266.078 -329.518 264.836 -326.367 262.79C-323.23 260.61 -320.892 257.771 -319.356 254.273C-317.82 250.776 -317.27 246.771 -317.708 242.258C-318.158 237.613 -319.473 233.722 -321.652 230.584C-323.832 227.447 -326.664 225.176 -330.149 223.772C-333.634 222.369 -337.633 221.886 -342.145 222.323L-366.033 224.638L-369.12 192.788L-346.227 190.569C-333.752 189.359 -322.797 190.441 -313.361 193.813C-303.805 197.04 -296.193 202.33 -290.523 209.684C-284.854 217.038 -281.492 226.156 -280.437 237.038L-280.129 240.223C-279.087 250.973 -280.641 260.501 -284.793 268.807C-288.944 277.113 -295.393 283.833 -304.138 288.967C-312.751 294.089 -323.295 297.254 -335.769 298.463L-358.662 300.682ZM-387.964 342.504L-402.165 195.991L-365.139 192.402L-350.938 338.915L-387.964 342.504ZM-253.279 329.449L-267.48 182.936L-230.454 179.347L-216.253 325.86L-253.279 329.449ZM-165.69 320.96L-212.48 263.204L-172.268 259.307L-123.089 316.83L-165.69 320.96ZM-229.931 282.176L-232.69 253.71L-197.853 250.333C-193.474 249.909 -189.775 248.679 -186.757 246.645C-183.739 244.611 -181.522 241.918 -180.106 238.566C-178.556 235.201 -177.988 231.395 -178.399 227.148C-178.824 222.769 -180.119 219.076 -182.286 216.071C-184.32 213.054 -187.013 210.836 -190.365 209.42C-193.718 208.003 -197.584 207.507 -201.963 207.932L-236.8 211.308L-239.81 180.254L-207.163 177.09C-194.555 175.868 -183.486 176.737 -173.956 179.698C-164.439 182.526 -156.865 187.419 -151.234 194.375C-145.617 201.198 -142.28 210.05 -141.225 220.933L-140.917 224.118C-139.862 235 -141.502 244.335 -145.838 252.123C-150.054 259.766 -156.56 265.889 -165.357 270.492C-174.034 274.95 -184.676 277.79 -197.284 279.012L-229.931 282.176ZM-35.6668 312.376C-48.9379 313.662 -60.7025 312.525 -70.9605 308.965C-81.2313 305.272 -89.9784 300.024 -97.2016 293.223C-104.438 286.289 -110.073 278.596 -114.107 270.146C-118.141 261.696 -120.557 253.357 -121.354 245.129L-121.779 240.749C-122.666 231.592 -121.876 222.473 -119.407 213.393C-116.951 204.179 -112.752 195.668 -106.811 187.858C-100.87 180.049 -93.2618 173.551 -83.9855 168.365C-74.5765 163.167 -63.4355 159.944 -50.5625 158.696C-37.8222 157.461 -26.4023 158.497 -16.3027 161.805C-6.07045 165.1 2.71078 170.009 10.041 176.532C17.3712 183.056 23.1261 190.602 27.3057 199.172C31.6052 207.597 34.1987 216.388 35.0863 225.545L35.5107 229.924C36.3083 238.152 35.4726 246.807 33.0038 255.887C30.6677 264.955 26.6149 273.586 20.8452 281.781C15.0627 289.843 7.48622 296.672 -1.88421 302.269C-11.2675 307.733 -22.5284 311.102 -35.6668 312.376ZM-39.0241 277.738C-32.654 277.12 -27.0503 275.506 -22.2131 272.893C-17.3758 270.281 -13.3521 266.877 -10.142 262.681C-6.9318 258.485 -4.64213 253.776 -3.27298 248.553C-1.91669 243.197 -1.52797 237.533 -2.10682 231.561C-2.72426 225.191 -4.27915 219.514 -6.77148 214.532C-9.13111 209.536 -12.2826 205.354 -16.226 201.985C-20.1694 198.616 -24.7591 196.181 -29.995 194.679C-35.231 193.178 -40.9677 192.729 -47.2052 193.333C-53.5753 193.951 -59.1854 195.499 -64.0355 197.979C-68.8856 200.458 -72.9222 203.73 -76.1452 207.793C-79.3682 211.856 -81.6579 216.566 -83.0142 221.921C-84.3705 227.277 -84.7399 233.14 -84.1225 239.51C-83.5436 245.482 -82.0744 250.966 -79.7147 255.962C-77.368 260.825 -74.2165 265.007 -70.2602 268.508C-66.304 272.01 -61.7014 274.578 -56.4526 276.212C-51.2038 277.847 -45.3943 278.355 -39.0241 277.738ZM98.0082 296.204L94.6508 261.566L118.539 259.251C124.776 258.646 130.267 257.243 135.01 255.042C139.873 252.695 143.869 249.696 146.997 246.044C150.114 242.259 152.369 237.887 153.764 232.93C155.146 227.839 155.541 222.242 154.949 216.137C154.332 209.767 152.863 204.283 150.542 199.686C148.208 194.955 145.161 191.165 141.402 188.314C137.63 185.331 133.145 183.287 127.948 182.184C122.87 180.934 117.213 180.612 110.975 181.217L87.0872 183.532L83.7299 148.894L106.025 146.733C119.164 145.46 130.823 146.205 141.004 148.969C151.318 151.72 160.114 156.092 167.393 162.084C174.659 167.944 180.368 175.026 184.522 183.331C188.676 191.636 191.223 200.632 192.162 210.32L192.586 214.699C193.448 223.591 192.638 232.511 190.156 241.459C187.662 250.274 183.431 258.453 177.465 265.997C171.485 273.409 163.718 279.654 154.163 284.733C144.729 289.666 133.442 292.769 120.304 294.043L98.0082 296.204ZM64.963 299.407L50.6848 152.097L87.7112 148.508L101.99 295.818L64.963 299.407ZM282.478 281.539C268.543 282.889 256.481 281.446 246.291 277.21C236.235 272.96 228.228 266.368 222.272 257.435C216.302 248.368 212.688 237.332 211.427 224.327L203.111 138.529L240.137 134.94L248.531 221.534C249.084 227.241 250.628 232.114 253.163 236.155C255.831 240.183 259.331 243.126 263.663 244.983C267.996 246.841 273.149 247.48 279.121 246.901C285.093 246.322 290.026 244.705 293.922 242.051C297.817 239.396 300.627 235.908 302.352 231.588C304.063 227.136 304.636 221.99 304.07 216.151L295.677 129.556L332.703 125.968L341.02 211.766C342.28 224.771 340.852 236.296 336.735 246.34C332.738 256.239 326.147 264.245 316.96 270.36C307.907 276.462 296.413 280.188 282.478 281.539ZM441.987 266.078C428.849 267.352 417.35 266.189 407.49 262.59C397.617 258.858 389.268 253.572 382.443 246.732C375.605 239.759 370.302 232.035 366.533 223.559C362.765 215.083 360.482 206.731 359.684 198.503L359.26 194.124C358.372 184.966 358.964 175.867 361.034 166.825C363.225 157.637 367.025 149.165 372.435 141.407C377.978 133.636 385.188 127.176 394.067 122.029C402.945 116.882 413.621 113.704 426.096 112.495C439.367 111.208 451.357 112.592 462.064 116.644C472.892 120.551 481.861 126.714 488.974 135.134C496.073 143.421 500.726 153.419 502.932 165.127L465.906 168.716C464.488 163.763 462.073 159.577 458.66 156.157C455.248 152.737 451.056 150.263 446.086 148.735C441.102 147.075 435.558 146.541 429.454 147.132C423.747 147.686 418.668 149.183 414.216 151.623C409.896 154.051 406.324 157.278 403.499 161.302C400.794 165.181 398.83 169.792 397.607 175.135C396.516 180.466 396.285 186.382 396.916 192.885C397.546 199.388 398.908 205.15 401.002 210.171C403.229 215.18 406.115 219.388 409.661 222.795C413.339 226.189 417.597 228.657 422.434 230.197C427.259 231.605 432.658 232.019 438.63 231.44C447.92 230.54 455.531 227.525 461.464 222.395C467.529 217.253 470.859 210.835 471.453 203.142L508.479 199.553C508.34 210.551 505.655 220.858 500.425 230.474C495.195 240.09 487.668 248.121 477.844 254.565C468.007 260.877 456.055 264.715 441.987 266.078ZM560.991 250.525L549.645 133.473L586.672 129.884L598.017 246.936L560.991 250.525ZM510.218 141.314L507.092 109.065L623.745 97.7578L626.871 130.007L510.218 141.314ZM705.536 240.533C692 241.845 680.381 240.828 670.679 237.482C661.11 234.122 653.584 229.025 648.099 222.189C642.733 215.207 639.588 206.939 638.661 197.384L674.493 193.91C674.828 197.361 676.066 200.456 678.207 203.196C680.467 205.79 683.599 207.696 687.602 208.916C691.605 210.135 696.593 210.456 702.565 209.877C707.741 209.375 712.056 208.287 715.51 206.613C719.098 204.925 721.704 202.797 723.331 200.228C725.09 197.647 725.809 194.697 725.487 191.379C725.076 187.132 722.969 184.054 719.167 182.146C715.352 180.104 709.166 179.163 700.608 179.323L691.175 179.434C676.05 179.56 663.649 176.006 653.973 168.773C644.296 161.539 638.809 151.221 637.509 137.817C636.583 128.262 637.982 119.888 641.705 112.695C645.561 105.489 651.364 99.7024 659.112 95.3346C666.86 90.9667 676.241 88.2489 687.256 87.1813C699.2 86.0236 709.479 87.0366 718.093 90.2205C726.84 93.3914 733.757 98.4142 738.844 105.289C743.918 112.031 746.918 120.179 747.844 129.735L712.012 133.208C711.703 130.023 710.624 127.18 708.774 124.68C706.925 122.18 704.403 120.348 701.209 119.184C698.135 117.875 694.475 117.426 690.228 117.838C686.246 118.224 682.927 119.215 680.268 120.812C677.73 122.264 675.84 124.189 674.599 126.586C673.49 128.971 673.071 131.557 673.341 134.344C673.702 138.06 675.271 141.123 678.05 143.532C680.829 145.942 685.362 147.11 691.651 147.036L701.085 146.926C712.057 146.8 721.91 148.256 730.644 151.295C739.365 154.2 746.429 158.673 751.837 164.712C757.245 170.752 760.406 178.483 761.319 187.906C762.233 197.328 760.575 205.795 756.346 213.304C752.25 220.801 745.877 226.911 737.226 231.634C728.707 236.345 718.144 239.311 705.536 240.533Z"
        fill="rgba(255,255,255,0.5)" />
    <path opacity="0.1"
        d="M-344.006 448.417L-347.093 416.566L-323.205 414.25C-318.693 413.813 -314.862 412.571 -311.711 410.524C-308.573 408.345 -306.236 405.506 -304.7 402.008C-303.163 398.51 -302.614 394.505 -303.051 389.993C-303.502 385.348 -304.816 381.457 -306.996 378.319C-309.175 375.181 -312.008 372.911 -315.493 371.507C-318.978 370.103 -322.976 369.62 -327.489 370.058L-351.377 372.373L-354.464 340.522L-331.571 338.303C-319.096 337.094 -308.141 338.176 -298.705 341.548C-289.149 344.774 -281.536 350.064 -275.867 357.418C-270.198 364.772 -266.836 373.891 -265.781 384.773L-265.472 387.958C-264.43 398.708 -265.985 408.235 -270.137 416.541C-274.288 424.847 -280.736 431.567 -289.482 436.702C-298.095 441.823 -308.638 444.988 -321.113 446.198L-344.006 448.417ZM-373.308 490.239L-387.509 343.725L-350.482 340.136L-336.281 486.65L-373.308 490.239ZM-238.623 477.184L-252.824 330.671L-215.797 327.082L-201.596 473.595L-238.623 477.184ZM-151.033 468.694L-197.823 410.939L-157.612 407.041L-108.433 464.565L-151.033 468.694ZM-215.275 429.911L-218.034 401.444L-183.197 398.068C-178.818 397.643 -175.119 396.414 -172.101 394.38C-169.083 392.346 -166.866 389.653 -165.449 386.301C-163.9 382.935 -163.331 379.129 -163.743 374.883C-164.167 370.503 -165.463 366.811 -167.63 363.806C-169.664 360.788 -172.357 358.571 -175.709 357.154C-179.061 355.738 -182.927 355.242 -187.307 355.666L-222.144 359.043L-225.154 327.989L-192.507 324.824C-179.899 323.602 -168.83 324.472 -159.3 327.433C-149.783 330.261 -142.209 335.153 -136.578 342.109C-130.96 348.932 -127.624 357.785 -126.569 368.667L-126.261 371.852C-125.206 382.735 -126.846 392.07 -131.182 399.858C-135.397 407.5 -141.904 413.623 -150.701 418.227C-159.378 422.685 -170.02 425.525 -182.628 426.747L-215.275 429.911ZM-21.0105 460.11C-34.2817 461.397 -46.0462 460.26 -56.3042 456.699C-66.5751 453.006 -75.3221 447.759 -82.5453 440.957C-89.7814 434.023 -95.4165 426.331 -99.4505 417.881C-103.485 409.43 -105.9 401.091 -106.698 392.863L-107.122 388.484C-108.01 379.327 -107.219 370.208 -104.751 361.127C-102.295 351.914 -98.0961 343.403 -92.1552 335.593C-86.2142 327.783 -78.6056 321.286 -69.3293 316.1C-59.9203 310.901 -48.7792 307.678 -35.9062 306.43C-23.166 305.196 -11.746 306.232 -1.64647 309.54C8.5858 312.835 17.367 317.744 24.6972 324.267C32.0274 330.79 37.7823 338.337 41.9619 346.907C46.2614 355.331 48.8549 364.122 49.7425 373.279L50.167 377.659C50.9645 385.887 50.1289 394.541 47.6601 403.622C45.324 412.689 41.2711 421.321 35.5015 429.516C29.7189 437.578 22.1425 444.407 12.772 450.004C3.38875 455.468 -7.87211 458.837 -21.0105 460.11ZM-24.3679 425.473C-17.9977 424.855 -12.394 423.24 -7.55681 420.628C-2.71958 418.016 1.30411 414.612 4.51428 410.416C7.72445 406.22 10.0141 401.51 11.3833 396.287C12.7396 390.931 13.1283 385.268 12.5494 379.296C11.932 372.925 10.3771 367.249 7.88477 362.266C5.52514 357.27 2.37363 353.088 -1.56975 349.72C-5.51313 346.351 -10.1028 343.916 -15.3388 342.414C-20.5748 340.912 -26.3115 340.463 -32.5489 341.068C-38.9191 341.686 -44.5292 343.234 -49.3793 345.713C-54.2293 348.193 -58.2659 351.464 -61.4889 355.527C-64.712 359.591 -67.0016 364.3 -68.3579 369.656C-69.7142 375.012 -70.0836 380.875 -69.4662 387.245C-68.8874 393.217 -67.4181 398.701 -65.0585 403.697C-62.7117 408.56 -59.5602 412.742 -55.604 416.243C-51.6477 419.744 -47.0452 422.312 -41.7963 423.947C-36.5475 425.581 -30.738 426.09 -24.3679 425.473ZM112.664 443.939L109.307 409.301L133.195 406.985C139.433 406.381 144.923 404.978 149.666 402.777C154.529 400.43 158.525 397.431 161.654 393.778C164.77 389.993 167.025 385.622 168.42 380.664C169.802 375.574 170.197 369.976 169.606 363.872C168.988 357.501 167.519 352.018 165.198 347.42C162.864 342.69 159.817 338.899 156.058 336.049C152.286 333.065 147.801 331.022 142.604 329.918C137.526 328.669 131.869 328.347 125.632 328.951L101.743 331.267L98.3861 296.629L120.682 294.468C133.82 293.194 145.48 293.94 155.661 296.704C165.974 299.455 174.77 303.827 182.049 309.819C189.315 315.679 195.025 322.761 199.179 331.066C203.332 339.37 205.879 348.367 206.818 358.054L207.242 362.434C208.104 371.326 207.294 380.245 204.813 389.193C202.318 398.008 198.088 406.188 192.121 413.732C186.141 421.144 178.374 427.389 168.82 432.467C159.385 437.401 148.098 440.504 134.96 441.777L112.664 443.939ZM79.6193 447.141L65.341 299.832L102.367 296.243L116.646 443.553L79.6193 447.141ZM297.134 429.273C283.199 430.624 271.137 429.181 260.948 424.944C250.891 420.695 242.884 414.103 236.928 405.169C230.959 396.103 227.344 385.067 226.083 372.061L217.767 286.263L254.794 282.674L263.187 369.269C263.74 374.975 265.284 379.849 267.819 383.89C270.487 387.918 273.987 390.861 278.32 392.718C282.652 394.575 287.805 395.215 293.777 394.636C299.749 394.057 304.683 392.44 308.578 389.785C312.473 387.13 315.283 383.643 317.008 379.323C318.72 374.871 319.293 369.725 318.727 363.885L310.333 277.291L347.36 273.702L355.676 359.5C356.936 372.506 355.508 384.031 351.391 394.075C347.394 403.973 340.803 411.98 331.617 418.095C322.563 424.196 311.069 427.923 297.134 429.273ZM456.643 413.813C443.505 415.086 432.006 413.923 422.146 410.325C412.273 406.593 403.924 401.307 397.099 394.467C390.261 387.494 384.958 379.77 381.189 371.294C377.421 362.818 375.138 354.466 374.34 346.238L373.916 341.858C373.028 332.701 373.62 323.602 375.69 314.56C377.881 305.372 381.681 296.899 387.091 289.141C392.634 281.37 399.845 274.911 408.723 269.764C417.601 264.617 428.278 261.438 440.752 260.229C454.024 258.943 466.013 260.326 476.721 264.379C487.548 268.286 496.518 274.449 503.63 282.869C510.729 291.156 515.382 301.154 517.589 312.862L480.562 316.451C479.144 311.498 476.729 307.311 473.317 303.891C469.904 300.471 465.713 297.997 460.742 296.47C455.759 294.81 450.214 294.275 444.11 294.867C438.403 295.42 433.324 296.917 428.872 299.358C424.553 301.786 420.981 305.012 418.156 309.037C415.451 312.916 413.486 317.527 412.263 322.87C411.172 328.2 410.942 334.117 411.572 340.62C412.202 347.122 413.564 352.885 415.659 357.906C417.886 362.914 420.772 367.122 424.317 370.529C427.995 373.924 432.253 376.391 437.091 377.932C441.916 379.339 447.314 379.754 453.286 379.175C462.576 378.275 470.187 375.26 476.12 370.13C482.186 364.987 485.515 358.57 486.109 350.876L523.136 347.288C522.996 358.286 520.311 368.593 515.081 378.209C509.851 387.825 502.324 395.855 492.5 402.3C482.663 408.612 470.711 412.449 456.643 413.813ZM575.647 398.259L564.302 281.208L601.328 277.619L612.674 394.67L575.647 398.259ZM524.874 289.048L521.748 256.799L638.402 245.492L641.528 277.741L524.874 289.048ZM720.192 388.268C706.656 389.58 695.037 388.563 685.335 385.216C675.767 381.857 668.24 376.759 662.755 369.923C657.39 362.942 654.244 354.673 653.318 345.118L689.15 341.645C689.484 345.096 690.722 348.191 692.863 350.93C695.124 353.524 698.256 355.431 702.259 356.65C706.262 357.87 711.249 358.19 717.221 357.611C722.397 357.11 726.712 356.022 730.166 354.347C733.754 352.66 736.361 350.532 737.987 347.963C739.746 345.381 740.465 342.431 740.143 339.114C739.732 334.867 737.625 331.789 733.823 329.88C730.008 327.839 723.822 326.898 715.264 327.058L705.831 327.168C690.706 327.295 678.305 323.741 668.629 316.508C658.953 309.274 653.465 298.955 652.166 285.551C651.239 275.996 652.638 267.622 656.362 260.429C660.218 253.224 666.02 247.437 673.768 243.069C681.516 238.701 690.898 235.984 701.913 234.916C713.857 233.758 724.136 234.771 732.75 237.955C741.496 241.126 748.413 246.149 753.5 253.023C758.574 259.765 761.574 267.914 762.501 277.469L726.668 280.942C726.36 277.757 725.28 274.915 723.431 272.415C721.581 269.915 719.059 268.083 715.865 266.919C712.791 265.61 709.131 265.161 704.884 265.572C700.903 265.958 697.583 266.95 694.925 268.547C692.386 269.999 690.496 271.923 689.255 274.321C688.147 276.706 687.728 279.291 687.998 282.078C688.358 285.794 689.927 288.857 692.706 291.267C695.485 293.677 700.019 294.845 706.308 294.771L715.741 294.661C726.713 294.535 736.566 295.991 745.3 299.029C754.021 301.935 761.086 306.407 766.494 312.447C771.902 318.487 775.062 326.218 775.975 335.641C776.889 345.063 775.231 353.529 771.003 361.039C766.907 368.536 760.533 374.646 751.882 379.369C743.363 384.079 732.8 387.046 720.192 388.268Z"
        fill="rgba(255,255,255,0.5)" />
    <path opacity="0.1"
        d="M-331.81 597.606L-334.897 565.756L-311.009 563.44C-306.497 563.003 -302.666 561.761 -299.515 559.714C-296.377 557.534 -294.04 554.696 -292.504 551.198C-290.968 547.7 -290.418 543.695 -290.855 539.183C-291.306 534.538 -292.621 530.646 -294.8 527.509C-296.98 524.371 -299.812 522.1 -303.297 520.697C-306.782 519.293 -310.781 518.81 -315.293 519.247L-339.181 521.563L-342.268 489.712L-319.375 487.493C-306.9 486.284 -295.945 487.365 -286.509 490.737C-276.953 493.964 -269.341 499.254 -263.671 506.608C-258.002 513.962 -254.64 523.08 -253.585 533.963L-253.276 537.148C-252.235 547.897 -253.789 557.425 -257.941 565.731C-262.092 574.037 -268.54 580.757 -277.286 585.891C-285.899 591.013 -296.443 594.178 -308.917 595.387L-331.81 597.606ZM-361.112 639.428L-375.313 492.915L-338.287 489.326L-324.086 635.839L-361.112 639.428ZM-226.427 626.374L-240.628 479.86L-203.602 476.271L-189.4 622.785L-226.427 626.374ZM-138.837 617.884L-185.628 560.129L-145.416 556.231L-96.2371 613.755L-138.837 617.884ZM-203.079 579.101L-205.838 550.634L-171.001 547.257C-166.622 546.833 -162.923 545.604 -159.905 543.57C-156.887 541.536 -154.67 538.843 -153.254 535.49C-151.704 532.125 -151.136 528.319 -151.547 524.072C-151.972 519.693 -153.267 516.001 -155.434 512.996C-157.468 509.978 -160.161 507.761 -163.513 506.344C-166.866 504.928 -170.731 504.432 -175.111 504.856L-209.948 508.233L-212.958 477.178L-180.311 474.014C-167.703 472.792 -156.634 473.661 -147.104 476.622C-137.587 479.451 -130.013 484.343 -124.382 491.299C-118.764 498.122 -115.428 506.975 -114.373 517.857L-114.065 521.042C-113.01 531.925 -114.65 541.26 -118.986 549.048C-123.201 556.69 -129.708 562.813 -138.505 567.416C-147.182 571.874 -157.824 574.714 -170.432 575.936L-203.079 579.101ZM-8.81467 609.3C-22.0858 610.586 -33.8504 609.449 -44.1084 605.889C-54.3792 602.196 -63.1263 596.949 -70.3495 590.147C-77.5855 583.213 -83.2206 575.521 -87.2546 567.07C-91.2887 558.62 -93.7045 550.281 -94.502 542.053L-94.9265 537.673C-95.8141 528.516 -95.0235 519.398 -92.5546 510.317C-90.0987 501.104 -85.9003 492.592 -79.9593 484.783C-74.0183 476.973 -66.4097 470.475 -57.1334 465.29C-47.7244 460.091 -36.5834 456.868 -23.7104 455.62C-10.9701 454.385 0.449837 455.422 10.5494 458.729C20.7817 462.024 29.5629 466.933 36.8931 473.457C44.2233 479.98 49.9782 487.527 54.1578 496.097C58.4573 504.521 61.0508 513.312 61.9384 522.469L62.3629 526.848C63.1604 535.077 62.3247 543.731 59.8559 552.811C57.5198 561.879 53.467 570.51 47.6973 578.705C41.9148 586.767 34.3383 593.597 24.9679 599.194C15.5846 604.658 4.32376 608.026 -8.81467 609.3ZM-12.172 574.662C-5.80185 574.045 -0.198165 572.43 4.63905 569.818C9.47628 567.206 13.5 563.802 16.7101 559.606C19.9203 555.41 22.21 550.7 23.5791 545.477C24.9354 540.121 25.3241 534.457 24.7453 528.485C24.1279 522.115 22.573 516.439 20.0806 511.456C17.721 506.46 14.5695 502.278 10.6261 498.909C6.68273 495.541 2.09305 493.106 -3.14293 491.604C-8.37891 490.102 -14.1156 489.653 -20.3531 490.258C-26.7232 490.875 -32.3333 492.424 -37.1834 494.903C-42.0335 497.383 -46.07 500.654 -49.2931 504.717C-52.5161 508.78 -54.8058 513.49 -56.1621 518.846C-57.5184 524.202 -57.8878 530.065 -57.2703 536.435C-56.6915 542.407 -55.2223 547.891 -52.8626 552.886C-50.5159 557.749 -47.3644 561.931 -43.4081 565.433C-39.4519 568.934 -34.8493 571.502 -29.6005 573.137C-24.3516 574.771 -18.5421 575.28 -12.172 574.662ZM124.86 593.128L121.503 558.491L145.391 556.175C151.628 555.571 157.119 554.168 161.862 551.966C166.725 549.62 170.721 546.62 173.85 542.968C176.966 539.183 179.221 534.812 180.616 529.854C181.998 524.764 182.393 519.166 181.801 513.061C181.184 506.691 179.715 501.207 177.394 496.61C175.06 491.88 172.013 488.089 168.254 485.239C164.482 482.255 159.997 480.212 154.8 479.108C149.722 477.859 144.065 477.536 137.827 478.141L113.939 480.456L110.582 445.819L132.878 443.658C146.016 442.384 157.676 443.129 167.856 445.893C178.17 448.645 186.966 453.016 194.245 459.009C201.511 464.868 207.221 471.951 211.374 480.255C215.528 488.56 218.075 497.556 219.014 507.244L219.438 511.624C220.3 520.515 219.49 529.435 217.009 538.383C214.514 547.198 210.283 555.378 204.317 562.922C198.337 570.333 190.57 576.578 181.016 581.657C171.581 586.59 160.294 589.694 147.156 590.967L124.86 593.128ZM91.8151 596.331L77.5369 449.022L114.563 445.433L128.842 592.742L91.8151 596.331ZM309.33 578.463C295.395 579.814 283.333 578.371 273.144 574.134C263.087 569.884 255.08 563.293 249.124 554.359C243.155 545.293 239.54 534.257 238.279 521.251L229.963 435.453L266.989 431.864L275.383 518.458C275.936 524.165 277.48 529.039 280.015 533.08C282.683 537.108 286.183 540.05 290.516 541.908C294.848 543.765 300.001 544.404 305.973 543.825C311.945 543.247 316.878 541.63 320.774 538.975C324.669 536.32 327.479 532.833 329.204 528.513C330.916 524.06 331.488 518.914 330.922 513.075L322.529 426.481L359.556 422.892L367.872 508.69C369.132 521.696 367.704 533.22 363.587 543.264C359.59 553.163 352.999 561.17 343.812 567.284C334.759 573.386 323.265 577.112 309.33 578.463ZM468.839 563.002C455.701 564.276 444.202 563.113 434.342 559.514C424.469 555.783 416.12 550.497 409.295 543.657C402.457 536.684 397.154 528.959 393.385 520.483C389.617 512.007 387.334 503.655 386.536 495.427L386.112 491.048C385.224 481.891 385.816 472.791 387.886 463.749C390.077 454.562 393.877 446.089 399.287 438.331C404.83 430.56 412.041 424.101 420.919 418.954C429.797 413.806 440.473 410.628 452.948 409.419C466.219 408.133 478.209 409.516 488.916 413.568C499.744 417.475 508.714 423.639 515.826 432.059C522.925 440.346 527.578 450.343 529.784 462.052L492.758 465.641C491.34 460.688 488.925 456.501 485.512 453.081C482.1 449.661 477.908 447.187 472.938 445.66C467.954 443.999 462.41 443.465 456.306 444.057C450.599 444.61 445.52 446.107 441.068 448.548C436.749 450.976 433.176 454.202 430.352 458.227C427.647 462.106 425.682 466.717 424.459 472.06C423.368 477.39 423.137 483.306 423.768 489.809C424.398 496.312 425.76 502.074 427.855 507.096C430.081 512.104 432.968 516.312 436.513 519.719C440.191 523.114 444.449 525.581 449.287 527.121C454.111 528.529 459.51 528.944 465.482 528.365C474.772 527.464 482.383 524.449 488.316 519.32C494.381 514.177 497.711 507.759 498.305 500.066L535.332 496.477C535.192 507.475 532.507 517.782 527.277 527.399C522.047 537.015 514.52 545.045 504.696 551.489C494.859 557.801 482.907 561.639 468.839 563.002ZM587.843 547.449L576.498 430.398L613.524 426.809L624.869 543.86L587.843 547.449ZM537.07 438.238L533.944 405.989L650.598 394.682L653.723 426.931L537.07 438.238ZM732.388 537.457C718.852 538.769 707.233 537.752 697.531 534.406C687.963 531.047 680.436 525.949 674.951 519.113C669.585 512.131 666.44 503.863 665.514 494.308L701.346 490.835C701.68 494.285 702.918 497.38 705.059 500.12C707.319 502.714 710.451 504.621 714.454 505.84C718.457 507.06 723.445 507.38 729.417 506.801C734.593 506.299 738.908 505.211 742.362 503.537C745.95 501.85 748.557 499.722 750.183 497.153C751.942 494.571 752.661 491.621 752.339 488.303C751.928 484.057 749.821 480.979 746.019 479.07C742.204 477.029 736.018 476.088 727.46 476.247L718.027 476.358C702.902 476.484 690.501 472.931 680.825 465.697C671.148 458.464 665.661 448.145 664.361 434.741C663.435 425.186 664.834 416.812 668.557 409.619C672.414 402.414 678.216 396.627 685.964 392.259C693.712 387.891 703.093 385.173 714.108 384.106C726.052 382.948 736.331 383.961 744.946 387.145C753.692 390.316 760.609 395.339 765.696 402.213C770.77 408.955 773.77 417.104 774.696 426.659L738.864 430.132C738.556 426.947 737.476 424.104 735.627 421.605C733.777 419.105 731.255 417.273 728.061 416.109C724.987 414.799 721.327 414.35 717.08 414.762C713.099 415.148 709.779 416.139 707.12 417.737C704.582 419.188 702.692 421.113 701.451 423.511C700.343 425.895 699.923 428.481 700.194 431.268C700.554 434.984 702.123 438.047 704.902 440.457C707.681 442.866 712.215 444.035 718.503 443.961L727.937 443.85C738.909 443.724 748.762 445.181 757.496 448.219C766.217 451.124 773.282 455.597 778.69 461.637C784.097 467.677 787.258 475.408 788.171 484.83C789.085 494.253 787.427 502.719 783.198 510.228C779.103 517.725 772.729 523.835 764.078 528.559C755.559 533.269 744.996 536.235 732.388 537.457Z"
        fill="rgba(255,255,255,0.5)" />
    <ellipse cx="945" cy="313.5" rx="12" ry="11.5" fill="#FF000F" />
    <circle cx="395" cy="171" r="9" fill="#4AD66D" />
    <path
        d="M1381.26 590.684C1377.04 604.068 1374.43 630.1 1397.82 627.155C1427.05 623.475 1397.37 659.763 1416.23 664.517C1435.1 669.271 1453.55 659.549 1447.54 698.688"
        stroke="#F16521" stroke-width="12.2251" stroke-linecap="round" />
    <path
        d="M20.5067 583C19.0691 591.887 19.8358 608.65 34.4033 604.607C52.6126 599.554 37.1478 625.343 49.5632 626.607C61.9787 627.87 72.7824 619.985 72.6081 645.382"
        stroke="#3F83FF" stroke-width="7.84135" stroke-linecap="round" />
    <path
        d="M1175.51 469C1174.07 477.887 1174.84 494.65 1189.4 490.607C1207.61 485.554 1192.15 511.343 1204.56 512.607C1216.98 513.87 1227.78 505.985 1227.61 531.382"
        stroke="#3EA3FF" stroke-width="7.84135" stroke-linecap="round" />
    <circle cx="468" cy="508" r="16.5" stroke="#F7A325" stroke-width="5" />
    <path
        d="M913.5 562.5C913.5 567.371 909.348 571.5 904 571.5C898.652 571.5 894.5 567.371 894.5 562.5C894.5 557.629 898.652 553.5 904 553.5C909.348 553.5 913.5 557.629 913.5 562.5Z"
        fill="#FF000F" stroke="#F7A325" stroke-width="5" />
</svg>