<svg width="60" height="60" viewBox="0 0 60 60" fill="none" xmlns="http://www.w3.org/2000/svg">
<circle cx="30" cy="30" r="30" fill="#4D00AC"/>
<g clip-path="url(#clip0_3395_19280)">
<path d="M44.6896 20.0921L25.6885 39.0919C25.5607 39.2202 25.4089 39.3219 25.2417 39.3914C25.0745 39.4608 24.8953 39.4965 24.7143 39.4965C24.5332 39.4965 24.354 39.4608 24.1868 39.3914C24.0197 39.3219 23.8678 39.2202 23.7401 39.0919L16.3921 31.737C16.2643 31.6088 16.1125 31.507 15.9453 31.4376C15.7782 31.3681 15.5989 31.3324 15.4179 31.3324C15.2369 31.3324 15.0576 31.3681 14.8905 31.4376C14.7233 31.507 14.5715 31.6088 14.4437 31.737V31.737C14.3155 31.8648 14.2137 32.0166 14.1442 32.1838C14.0748 32.3509 14.0391 32.5302 14.0391 32.7112C14.0391 32.8922 14.0748 33.0715 14.1442 33.2387C14.2137 33.4058 14.3155 33.5576 14.4437 33.6854L21.7945 41.0348C22.5699 41.8088 23.6207 42.2435 24.7163 42.2435C25.8119 42.2435 26.8628 41.8088 27.6382 41.0348L46.638 22.0391C46.766 21.9114 46.8676 21.7597 46.9369 21.5926C47.0062 21.4256 47.0419 21.2465 47.0419 21.0656C47.0419 20.8848 47.0062 20.7057 46.9369 20.5387C46.8676 20.3716 46.766 20.2199 46.638 20.0921C46.5102 19.9639 46.3584 19.8621 46.1912 19.7927C46.024 19.7232 45.8448 19.6875 45.6638 19.6875C45.4828 19.6875 45.3035 19.7232 45.1363 19.7927C44.9692 19.8621 44.8173 19.9639 44.6896 20.0921Z" fill="white"/>
</g>
<defs>
<clipPath id="clip0_3395_19280">
<rect width="33" height="33" fill="white" transform="translate(14 14)"/>
</clipPath>
</defs>
</svg>
